PathFileType	4	(X/Y/Z)	D:\TRACE\v60_Jaco2_6-2-23\BothDRS_Motion1_10-v60.trc
DataRate	CameraRate	NumFrames	NumMarkers	Units	OrigDataRate	OrigDataStartFrame	OrigNumFrames
100.00	100.00	      24	9	mm	100.00	5626	      7500
Frame#	Time	front left toe			Front right toe			aft left toe			aft right toe			Arm			FL body			FR body			AL Body			AR Body			
		X1	Y1	Z1	X2	Y2	Z2	X3	Y3	Z3	X4	Y4	Z4	X5	Y5	Z5	X6	Y6	Z6	X7	Y7	Z7	X8	Y8	Z8	X9	Y9	Z9	

5626	56.250	-148.69363	132.32358	-239.98665	206.65514	7.56496	-290.49515	-113.16865	20.66416	367.40326	267.06042	145.31381	358.88876	135.52626	1082.53955	-729.40656	-56.62566	567.32666	-389.97418	102.62639	562.10297	-402.88449	18.55825	593.65558	552.65027	175.44128	583.68896	542.49335	
5627	56.260	-146.98701	125.98598	-239.65666	206.20810	7.54335	-290.26752	-113.53603	20.47180	367.51697	266.36011	139.29111	360.11868	137.02084	1083.10193	-727.73718	-56.21283	567.19177	-389.28970	103.14744	562.23456	-401.64777	18.12413	593.28229	553.63293	174.81108	582.75500	542.97198	
5628	56.270	-145.71307	119.39668	-239.56496	205.99710	7.78058	-290.02893	-113.78796	20.22257	367.64435	267.94556	132.89682	361.94815	137.81651	1084.13110	-726.02679	-56.08158	567.53271	-388.78351	103.78922	562.52618	-400.43890	17.77265	592.66553	554.73749	137.84700	600.13214	551.00128	
5629	56.280	-145.08546	112.41775	-239.42090	205.98743	7.96478	-289.91718	-114.09663	20.03516	367.56577	267.57993	124.51389	362.86105	138.51920	1084.82874	-724.30920	-55.24895	567.99768	-387.61316	104.35143	563.06458	-399.68631	17.14487	591.99451	555.55780	173.78996	581.74408	544.96088	
5630	56.290	-143.80780	104.39685	-238.97670	205.89856	8.09648	-289.65799	-114.80277	19.85765	367.56113	269.64902	116.39233	364.75800	139.48351	1085.64893	-722.70776	-53.88328	568.13818	-386.58893	105.88612	563.40320	-399.00613	16.92523	591.38684	556.75116	174.41983	581.13794	546.41187	
5631	56.300	-142.66963	95.96700	-238.41708	205.22693	8.17338	-289.66269	-115.39752	19.76522	367.73325	269.26944	106.91729	365.86374	140.47371	1086.23694	-721.13074	-53.51667	568.52405	-385.66803	106.19366	563.80963	-398.07846	16.10504	590.78644	557.68433	173.03894	580.59235	547.58142	
5632	56.310	-141.42941	86.95966	-237.60275	204.82065	8.39674	-289.51526	-115.94922	19.56445	367.79178	269.15417	97.57095	367.68900	140.85947	1086.63513	-719.68420	-52.36094	568.55579	-384.54807	106.82803	564.00146	-396.57782	15.98386	590.23492	559.04999	172.52194	580.09601	549.50720	
5633	56.320	-140.16531	77.69617	-236.45329	204.16972	8.48912	-289.27530	-116.22849	19.38510	367.87750	268.86713	88.57932	369.82922	141.47604	1086.98340	-717.80475	-52.09031	568.77771	-383.54623	107.20209	564.06628	-394.77036	15.20426	589.62555	560.07251	171.97653	579.27881	550.16455	
5634	56.330	-139.17487	68.32572	-234.47765	203.92400	8.56225	-289.13864	-116.76222	19.24236	367.97989	268.94339	79.80603	372.01862	142.48587	1087.48999	-716.09637	-52.17591	569.21765	-382.71869	107.72739	564.27484	-393.59860	15.42300	589.20349	561.37024	171.83717	578.85052	551.58502	
5635	56.340	-137.95068	59.06940	-232.17529	203.59134	8.59641	-289.00250	-116.97652	18.95291	368.05576	269.25937	71.05295	374.41180	143.45184	1087.83594	-714.24011	-51.37309	569.15863	-381.09637	108.92010	564.46814	-392.49295	15.11888	588.87225	562.73083	171.34271	578.36224	553.08807	
5636	56.350	-137.75354	49.92037	-229.51166	203.28279	8.63386	-288.80746	-117.33939	18.87890	368.21060	269.60593	61.59866	376.59814	144.82579	1088.15662	-712.45160	-50.45642	569.26825	-379.75253	109.20265	564.45154	-390.55075	13.18494	587.17059	561.33179	171.29915	577.95844	554.64319	
5637	56.360	-138.21236	39.99963	-226.88045	202.93361	8.68246	-288.65622	-118.03499	18.77942	368.40048	270.56412	52.30681	379.15292	145.98167	1088.22412	-710.78961	-49.54736	569.26831	-378.18173	109.63428	564.41418	-389.21405	14.26877	587.43652	564.20831	171.17662	577.71326	556.07629	
5638	56.370	-137.97916	29.76340	-223.49614	202.64331	8.79696	-288.35287	-118.71399	18.65448	368.33420	271.66321	42.97492	382.06543	146.78685	1088.12805	-708.86658	-48.55302	568.69702	-376.69879	111.03122	564.21539	-387.94333	13.98014	587.20557	565.68530	170.88145	577.42047	557.75659	
5639	56.380	-137.27460	21.19493	-219.90831	202.10353	8.68571	-288.18021	-119.12160	18.46029	368.64075	271.68228	35.96755	384.88004	148.08652	1087.86780	-706.96710	-48.84958	569.00562	-375.30899	111.51235	564.45935	-385.99130	13.77770	586.64447	567.35052	171.51743	576.87854	559.63739	
5640	56.390	-136.09541	15.65646	-217.38913	201.59642	8.85378	-288.03937	-119.41754	18.23550	368.62970	271.80075	29.05668	387.46225	148.92654	1087.79370	-705.00555	-48.23313	569.12152	-373.71597	111.46404	564.40643	-383.95398	13.68729	586.06549	568.83038	170.74557	576.38019	561.35626	
5641	56.400	-138.10944	16.08859	-219.93756	200.88776	8.86236	-287.82822	-119.92794	18.18303	368.66824	271.98618	27.53313	386.87396	149.57349	1088.08203	-702.88623	-46.83346	569.21387	-371.57883	112.75351	564.61023	-382.43573	14.06741	585.74908	570.79297	171.30710	576.07806	563.10986	
5642	56.410	-139.37871	13.06905	-219.03888	200.44060	9.04521	-287.57166	-120.32602	18.31670	368.82196	271.90451	23.85322	387.18045	150.27617	1088.36584	-700.81726	-46.19247	569.59143	-370.03659	113.04006	564.90332	-380.31003	14.01687	586.02197	572.68402	170.40387	576.22485	565.07928	
5643	56.420	-140.07588	14.99349	-218.40965	199.93381	9.44401	-287.32953	-120.69857	18.48586	369.36200	271.87836	25.39750	386.87219	150.97424	1089.00623	-698.53845	-45.23475	570.46332	-367.97226	114.20728	565.69391	-378.45602	13.86377	586.47546	574.75409	170.47717	576.96405	567.57739	
5644	56.430	-139.85124	15.77445	-218.91650	199.83789	10.33541	-287.18701	-121.23542	18.62093	369.43152	271.32986	23.62836	387.13937	152.40932	1089.76843	-696.43018	-45.38927	570.98883	-366.39499	115.02789	566.26569	-376.26215	12.83557	587.32806	575.97278	170.32042	577.96771	569.18555	
5645	56.440	-138.92517	14.87724	-216.02739	199.24367	14.05081	-285.69025	-120.82612	21.88291	369.71497	271.17209	23.54679	389.32947	153.26202	1091.29187	-694.25470	-44.36113	572.24780	-364.76633	115.40066	567.13123	-374.15930	13.25091	587.69983	578.30353	169.81554	578.28082	571.13892	
5646	56.450	-139.99719	15.64885	-217.10477	196.89439	18.20601	-281.29767	-117.30820	24.72328	373.93488	270.06476	22.61850	387.69284	154.75339	1092.66724	-691.96985	-43.06950	572.70923	-363.06079	116.40668	568.02911	-373.14075	12.83277	587.35901	579.60632	170.43208	577.96729	572.72516	
5647	56.460	-140.72972	15.60291	-217.95325	194.67638	22.77899	-276.01163	-113.42300	30.06860	377.50705	269.73636	22.71025	388.58572	156.05392	1094.10083	-689.73938	-43.31652	573.62329	-362.21411	116.72322	568.76007	-371.73682	12.54878	587.03479	581.07227	169.33446	577.75018	574.49371	
5648	56.470	-140.92007	14.85168	-216.80086	193.85252	33.07588	-273.87238	-110.87270	39.51408	378.15613	269.17017	22.05788	388.83026	157.02374	1095.80664	-687.61969	-43.16906	573.54474	-360.78043	116.06312	568.81299	-370.60257	12.39607	586.12952	581.51227	169.36360	576.92523	575.15527	
5649	56.480	-142.01106	15.21756	-217.07451	194.38573	42.91642	-271.81616	-109.69227	48.09232	379.26071	268.62683	21.74599	388.66846	157.71431	1096.55945	-686.13336	-43.50133	573.62976	-360.18198	116.73716	568.71460	-369.50266	12.50198	585.67865	583.34595	169.44772	576.13367	576.37543	
